<svg xmlns="http://www.w3.org/2000/svg" viewBox="0 0 64 64" width="512" height="512">
  <!-- sun -->
  <circle cx="52" cy="12" r="6" fill="#FFB81C"/>

  <!-- circuit traces: kept clear of the bowl silhouette so they still read at small sizes -->
  <g stroke="#2E7D32" stroke-width="2.4" fill="none" stroke-linecap="round" stroke-linejoin="round">
    <path d="M38 24 H45 L49 20 H55"/>
    <path d="M40 30 H48 L52 26 H58"/>
  </g>
  <g fill="#2E7D32">
    <circle cx="56.6" cy="20" r="2.6"/>
    <circle cx="59.4" cy="26" r="2.6"/>
  </g>

  <!-- sprouting leaves -->
  <path d="M27 35 C25 24 21 18 14 14 C12.5 24.5 16.5 32.5 27 35 Z" fill="#2E7D32"/>
  <path d="M29 35 C30 23 34.5 16 41 13 C43 24 38 33 29 35 Z" fill="#4CAF50"/>
  <path d="M29.5 35 C28.8 26.5 30.2 20 34 15.5" stroke="#F1F8E9" stroke-width="1.5" fill="none" stroke-linecap="round"/>

  <!-- bowl -->
  <path d="M5 34 C5 46.6 15.3 57 28 57 C40.7 57 51 46.6 51 34 Z" fill="#1B5E20"/>

  <!-- light field sweep + white separation -->
  <path d="M7 37 C14.5 51 33 54.5 47.5 43.5 C39 35.5 21 33 7 37 Z" fill="#66BB6A"/>
  <path d="M7.5 41 C16.5 50.5 31.5 52 43.5 44.5" stroke="#F1F8E9" stroke-width="2.1" fill="none" stroke-linecap="round"/>
  <path d="M12 47.5 C19 53 29 54 38 50" stroke="#8BC34A" stroke-width="2.1" fill="none" stroke-linecap="round"/>
</svg>
