<svg xmlns="http://www.w3.org/2000/svg" width="1080" height="1920" viewBox="0 0 1080 1920" font-family="Segoe UI, Roboto, Helvetica, Arial, sans-serif"><rect width="1080" height="1920" fill="#f4f1e6"/><defs><radialGradient id="gc" cx="88%" cy="12%" r="52%"><stop offset="0%" stop-color="#4a9c60" stop-opacity="0.17"/><stop offset="100%" stop-color="#4a9c60" stop-opacity="0"/></radialGradient></defs><rect width="1080" height="1920" fill="url(#gc)"/><text x="100" y="400" fill="#4a9c60" font-size="34" font-weight="700" letter-spacing="4">MARKET WATCH</text><text x="100" y="620" fill="#0f3020" fill-opacity="1" font-size="112" font-weight="700">Know the rate</text><text x="100" y="752" fill="#0f3020" fill-opacity="1" font-size="112" font-weight="700">before you</text><text x="100" y="884" fill="#0f3020" fill-opacity="1" font-size="112" font-weight="700">load the</text><text x="100" y="1016" fill="#0f3020" fill-opacity="1" font-size="112" font-weight="700">tractor.</text><rect x="100" y="1140" width="520" height="7" rx="3.5" fill="#e0a527"/><text x="100" y="1240" fill="#0f3020" fill-opacity="0.74" font-size="44" font-weight="400">Today's mandi prices, with the</text><text x="100" y="1302" fill="#0f3020" fill-opacity="0.74" font-size="44" font-weight="400">MSP shown right beside them.</text><g transform="translate(100 1508) scale(0.95)"><rect width="64" height="64" rx="14" fill="#0f3020" fill-opacity="1"/><path d="M18 42c0-14 10-24 26-24 0 16-10 26-26 26z" fill="#4a9c60"/><path d="M18 44c8-8 14-14 26-26" stroke="#e0a527" stroke-width="2.5" fill="none" stroke-linecap="round"/></g><text x="182 " y="1538" fill="#0f3020" fill-opacity="0.62" font-size="34" font-weight="700">AgroAI</text><text x="182" y="1578" fill="#0f3020" fill-opacity="0.44639999999999996" font-size="30">agroai-five.vercel.app</text></svg>