<svg xmlns="http://www.w3.org/2000/svg" width="1080" height="1350" viewBox="0 0 1080 1350" font-family="Segoe UI, Roboto, Helvetica, Arial, sans-serif"><rect width="1080" height="1350" fill="#0f3020"/><defs><radialGradient id="ga" cx="12%" cy="10%" r="54%"><stop offset="0%" stop-color="#e0a527" stop-opacity="0.20"/><stop offset="100%" stop-color="#e0a527" stop-opacity="0"/></radialGradient><radialGradient id="gb" cx="88%" cy="88%" r="60%"><stop offset="0%" stop-color="#4a9c60" stop-opacity="0.34"/><stop offset="100%" stop-color="#4a9c60" stop-opacity="0"/></radialGradient></defs><rect width="1080" height="1350" fill="url(#ga)"/><rect width="1080" height="1350" fill="url(#gb)"/><g transform="translate(95 300) scale(3.6)"><rect width="64" height="64" rx="14" fill="#0f3020" fill-opacity="1"/><path d="M18 42c0-14 10-24 26-24 0 16-10 26-26 26z" fill="#4a9c60"/><path d="M18 44c8-8 14-14 26-26" stroke="#e0a527" stroke-width="2.5" fill="none" stroke-linecap="round"/></g><text x="95" y="760" fill="#ffffff" fill-opacity="1" font-size="128" font-weight="700">AgroAI</text><text x="95" y="850" fill="#ffffff" fill-opacity="0.84" font-size="50" font-weight="400">Your smart farming</text><text x="95" y="914" fill="#ffffff" fill-opacity="0.84" font-size="50" font-weight="400">companion.</text><text x="95" y="1010" fill="#e0a527" fill-opacity="1" font-size="31" font-weight="600">Free · 23 Indian languages · No app</text><g transform="translate(95 1178) scale(0.86)"><rect width="64" height="64" rx="14" fill="#ffffff" fill-opacity="0.14"/><path d="M18 42c0-14 10-24 26-24 0 16-10 26-26 26z" fill="#7dd39a"/><path d="M18 44c8-8 14-14 26-26" stroke="#e0a527" stroke-width="2.5" fill="none" stroke-linecap="round"/></g><text x="169" y="1206" fill="#ffffff" fill-opacity="0.75" font-size="31" font-weight="700">AgroAI</text><text x="169" y="1242" fill="#ffffff" fill-opacity="0.54" font-size="27">agroai-five.vercel.app</text></svg>